<svg xmlns="http://www.w3.org/2000/svg" xmlns:xlink="http://www.w3.org/1999/xlink" version="1.1" x="0px" y="0px" viewBox="0 0 50 50" enable-background="new 0 0 50 50" xml:space="preserve"><path d="M48.677,11.975c-1.363-1.369-3.58-1.374-4.949-0.01L25,30.616L6.272,11.964c-1.369-1.363-3.584-1.359-4.95,0.01  c-1.364,1.37-1.359,3.585,0.01,4.95l21.185,21.099c0.001,0,0.001,0.001,0.002,0.002c0.001,0.001,0.001,0.001,0.002,0.002  l0.008,0.008c0.081,0.08,0.173,0.141,0.259,0.211c0.095,0.078,0.185,0.166,0.286,0.232c0.118,0.078,0.246,0.134,0.371,0.196  c0.08,0.039,0.155,0.091,0.236,0.124c0.161,0.065,0.328,0.106,0.495,0.147c0.052,0.012,0.101,0.035,0.153,0.045  c0.221,0.043,0.445,0.064,0.669,0.064s0.448-0.021,0.669-0.064c0.06-0.012,0.116-0.037,0.176-0.052  c0.159-0.04,0.319-0.078,0.473-0.141c0.073-0.029,0.14-0.076,0.211-0.11c0.134-0.065,0.271-0.126,0.397-0.21  c0.08-0.053,0.149-0.124,0.226-0.185c0.107-0.084,0.22-0.16,0.318-0.259l21.197-21.111C50.037,15.56,50.041,13.344,48.677,11.975z"></path></svg>