<svg xmlns="http://www.w3.org/2000/svg" width="24" height="24" viewBox="0 0 24 24" fill="none">
<g clip-path="url(#clip0_1_2185)">
<path d="M19 20.9999L19 19.5499C19 18.5732 19 18.0849 18.8874 17.6856C18.604 16.681 17.8189 15.8958 16.8143 15.6125C16.415 15.4999 15.9266 15.4999 14.95 15.4999H8.05C7.07337 15.4999 6.58505 15.4999 6.18568 15.6125C5.18108 15.8958 4.39596 16.681 4.11263 17.6856C4 18.0849 4 18.5732 4 19.5499L4 20.9999M16.2 7.06C16.2 9.30477 14.3196 11.1245 12 11.1245C9.6804 11.1245 7.8 9.30477 7.8 7.06C7.8 4.81523 9.6804 2.99548 12 2.99548C14.3196 2.99548 16.2 4.81523 16.2 7.06Z" stroke="white" stroke-width="2" stroke-linecap="round" stroke-linejoin="round"/>
</g>
<defs>
<clipPath id="clip0_1_2185">
<rect width="24" height="24" fill="white"/>
</clipPath>
</defs>
</svg>